HIERARCHY
ROOT Hips
{
 OFFSET 0.000000 0.000000 0.000000
 CHANNELS 6 Xposition Yposition Zposition Yrotation Xrotation Zrotation
 JOINT Chest
 {
  OFFSET 0.000000 0.087911 -0.065546
  CHANNELS 3 Yrotation Xrotation Zrotation
  JOINT Chest2
  {
   OFFSET 0.000000 0.074094 -0.000050
   CHANNELS 3 Yrotation Xrotation Zrotation
   JOINT Chest3
   {
    OFFSET 0.000000 0.105900 0.000026
    CHANNELS 3 Yrotation Xrotation Zrotation
    JOINT Chest4
    {
     OFFSET 0.000000 0.109216 0.000029
     CHANNELS 3 Yrotation Xrotation Zrotation
     JOINT Neck
     {
      OFFSET 0.000000 0.176282 -0.000024
      CHANNELS 3 Yrotation Xrotation Zrotation
      JOINT Head
      {
       OFFSET 0.000000 0.090319 0.000000
       CHANNELS 3 Yrotation Xrotation Zrotation
       End Site
       {
        OFFSET 0.000000 0.131706 0.000000
       }
      }
     }
     JOINT RightCollar
     {
      OFFSET -0.028133 0.110139 -0.000012
      CHANNELS 3 Yrotation Xrotation Zrotation
      JOINT RightShoulder
      {
       OFFSET -0.158561 0.000000 0.000000
       CHANNELS 3 Yrotation Xrotation Zrotation
       JOINT RightElbow
       {
        OFFSET -0.265160 0.000000 0.000000
        CHANNELS 3 Yrotation Xrotation Zrotation
        JOINT RightWrist
        {
         OFFSET -0.239129 0.000000 -0.000016
         CHANNELS 3 Yrotation Xrotation Zrotation
         End Site
         {
          OFFSET -0.175082 0.006533 0.000975
         }
        }
       }
      }
     }
     JOINT LeftCollar
     {
      OFFSET 0.028133 0.110139 -0.000012
      CHANNELS 3 Yrotation Xrotation Zrotation
      JOINT LeftShoulder
      {
       OFFSET 0.158561 0.000000 0.000000
       CHANNELS 3 Yrotation Xrotation Zrotation
       JOINT LeftElbow
       {
        OFFSET 0.265160 0.000000 0.000000
        CHANNELS 3 Yrotation Xrotation Zrotation
        JOINT LeftWrist
        {
         OFFSET 0.239129 0.000000 -0.000016
         CHANNELS 3 Yrotation Xrotation Zrotation
         End Site
         {
          OFFSET 0.175082 0.006533 0.000975
         }
        }
       }
      }
     }
    }
   }
  }
 }
 JOINT RightHip
 {
  OFFSET -0.094771 -0.000069 0.000011
  CHANNELS 3 Yrotation Xrotation Zrotation
  JOINT RightKnee
  {
   OFFSET 0.000000 -0.475024 0.000100
   CHANNELS 3 Yrotation Xrotation Zrotation
   JOINT RightAnkle
   {
    OFFSET 0.000000 -0.411622 0.001356
    CHANNELS 3 Yrotation Xrotation Zrotation
    JOINT RightToe
    {
     OFFSET 0.000000 -0.086895 0.180760
     CHANNELS 3 Yrotation Xrotation Zrotation
     End Site
     {
      OFFSET 0.000000 -0.009624 0.045094
     }
    }
   }
  }
 }
 JOINT LeftHip
 {
  OFFSET 0.094771 -0.000091 0.000014
  CHANNELS 3 Yrotation Xrotation Zrotation
  JOINT LeftKnee
  {
   OFFSET 0.000000 -0.475024 0.000100
   CHANNELS 3 Yrotation Xrotation Zrotation
   JOINT LeftAnkle
   {
    OFFSET 0.000000 -0.411622 0.001356
    CHANNELS 3 Yrotation Xrotation Zrotation
    JOINT LeftToe
    {
     OFFSET 0.000000 -0.086895 0.180760
     CHANNELS 3 Yrotation Xrotation Zrotation
     End Site
     {
      OFFSET 0.000000 -0.009624 0.045094
     }
    }
   }
  }
 }
}
MOTION
Frames: 5
Frame Time: 0.004167
0.093844 0.916000 0.839579 -24.869930 1.814923 -0.970554 6.560081 9.590940 0.900675 3.047312 -7.714850 0.214127 2.115766 2.968205 0.550714 0.624602 9.738122 0.145227 -0.037324 5.297834 -1.511871 -0.182238 9.836639 -2.825187 2.714403 -4.835844 6.599679 18.879814 -27.667808 64.695900 22.278944 -6.188718 0.072733 6.326598 -1.555005 -3.651844 0.018947 -9.340180 -7.123679 8.041498 3.732952 -74.083177 -1.386663 -4.222461 -0.218856 -0.245636 -0.078480 -0.130253 -8.540114 -11.086884 -14.179331 -33.057776 77.767429 -38.437600 -9.121749 -5.834530 -8.838261 -0.000000 0.000000 -0.000000 22.922761 -35.353432 -7.336297 1.257398 40.221688 4.988455 13.783283 -3.919729 -0.317634 0.000000 0.000000 0.000000
0.094321 0.916611 0.843034 -24.799269 1.652375 -0.787827 6.436374 9.684888 0.815732 2.997303 -7.610313 0.177104 2.081619 3.008940 0.516088 0.613320 9.719165 0.135287 -0.045989 5.356274 -1.512578 -0.199723 9.944969 -2.827529 2.665201 -4.812093 6.632311 18.611388 -27.579099 64.910331 21.911803 -6.183571 0.266677 6.266576 -1.583949 -3.374049 -0.010995 -9.289914 -7.106928 7.541881 3.036295 -74.079727 -2.370871 -4.076478 -0.350065 -0.313097 -0.081357 -0.124970 -8.887929 -12.045740 -14.070385 -34.810153 78.658071 -40.633958 -8.781651 -5.969280 -8.740752 0.000000 -0.000000 0.000000 22.237635 -34.972285 -7.166756 1.602848 40.238919 4.955972 14.000950 -4.110272 -0.410630 -0.000000 -0.000000 0.000000
0.094793 0.917317 0.846375 -24.723547 1.500013 -0.606000 6.306199 9.773463 0.727674 2.944524 -7.507964 0.138901 2.045521 3.047956 0.480358 0.601444 9.699557 0.125068 -0.052058 5.415280 -1.512230 -0.212316 10.054411 -2.827724 2.611523 -4.791446 6.667326 18.338624 -27.481698 65.123887 21.537702 -6.149560 0.473412 6.195924 -1.594233 -3.062485 -0.042701 -9.238801 -7.080070 7.052796 2.349372 -74.067302 -3.426970 -3.953028 -0.486334 -0.402763 -0.086213 -0.114154 -9.261281 -13.026652 -13.940878 -36.523814 79.482281 -42.780781 -8.393684 -6.086208 -8.592987 0.000000 -0.000000 -0.000000 21.520645 -34.584358 -6.984315 1.928930 40.204186 4.888508 14.240773 -4.273019 -0.505677 0.000000 -0.000000 0.000000
0.095258 0.918108 0.849613 -24.641537 1.354915 -0.427362 6.169993 9.858331 0.638420 2.888956 -7.406550 0.100403 2.007471 3.085909 0.444137 0.589003 9.679280 0.114733 -0.056107 5.473700 -1.510789 -0.221064 10.162818 -2.825731 2.553683 -4.773304 6.704468 18.062871 -27.375710 65.338182 21.162917 -6.087903 0.683955 6.121512 -1.588150 -2.735764 -0.076895 -9.184670 -7.044767 6.572319 1.666420 -74.045799 -4.534768 -3.846021 -0.623149 -0.506907 -0.090769 -0.098968 -9.645892 -14.019350 -13.791196 -38.181910 80.238270 -44.842875 -7.983007 -6.195168 -8.408371 -0.000000 0.000000 0.000000 20.795949 -34.188836 -6.800700 2.233728 40.123987 4.797498 14.486865 -4.409911 -0.597320 0.000000 0.000000 0.000000
0.095715 0.918974 0.852757 -24.552016 1.214156 -0.254214 6.028187 9.941182 0.549887 2.830581 -7.304809 0.062496 1.967463 3.123462 0.408035 0.576025 9.658319 0.104448 -0.058712 5.530386 -1.508210 -0.227009 10.268042 -2.821494 2.491995 -4.757077 6.743481 17.785488 -27.261235 65.554843 20.793793 -6.000131 0.889423 6.050388 -1.568574 -2.412379 -0.114298 -9.125361 -7.002689 6.098522 0.981692 -74.014897 -5.673980 -3.748970 -0.756611 -0.617807 -0.092902 -0.080870 -10.027427 -15.013518 -13.622359 -39.757394 80.923773 -46.775119 -7.574798 -6.305764 -8.200400 -0.000000 0.000000 -0.000000 20.087338 -33.785105 -6.627029 2.515542 40.004938 4.694522 14.723337 -4.522934 -0.680041 -0.000000 -0.000000 0.000000
